<svg id="Capa_1" enable-background="new 0 0 512 512" height="512" viewBox="0 0 512 512" width="512" xmlns="http://www.w3.org/2000/svg"><g><path d="m467 121h-86.703l-11.177-55.883c-2.794-13.974-15.166-24.117-29.417-24.117h-167.406c-14.25 0-26.623 10.143-29.417 24.117l-11.177 55.883h-86.703c-24.813 0-45 20.187-45 45v260c0 24.813 20.187 45 45 45h422c24.813 0 45-20.187 45-45v-260c0-24.813-20.187-45-45-45zm-294.703-50h167.406l10 50h-187.406zm309.703 355c0 8.271-6.729 15-15 15h-422c-8.271 0-15-6.729-15-15v-260c0-8.271 6.729-15 15-15h422c8.271 0 15 6.729 15 15z"/><path d="m256 185c-61.206 0-111 49.794-111 111s49.794 111 111 111 111-49.794 111-111-49.794-111-111-111zm0 192c-44.664 0-81-36.337-81-81s36.336-81 81-81 81 36.337 81 81-36.336 81-81 81z"/><path d="m128 185h-48c-8.284 0-15 6.716-15 15s6.716 15 15 15h48c8.284 0 15-6.716 15-15s-6.716-15-15-15z"/></g></svg>